<svg width="204" height="68" viewBox="0 0 204 68" fill="none" xmlns="http://www.w3.org/2000/svg">
<path d="M114.469 51.29V53H90.643V13.1H92.353V51.29H114.469ZM124.172 19.94H125.882V53H124.172V19.94ZM140.116 53V19.94H141.826L160.408 49.865V19.94H162.118V53H160.408L141.826 23.018V53H140.116ZM176.378 53V19.94H178.088V53H176.378ZM197.468 53L179.912 35.558L195.644 19.94H198.095L182.363 35.558L199.919 53H197.468Z" fill="#0072DD"/>
<path d="M114.469 51.29H115.969V49.79H114.469V51.29ZM114.469 53V54.5H115.969V53H114.469ZM90.643 53H89.143V54.5H90.643V53ZM90.643 13.1V11.6H89.143V13.1H90.643ZM92.353 13.1H93.853V11.6H92.353V13.1ZM92.353 51.29H90.853V52.79H92.353V51.29ZM114.469 51.29H112.969V53H114.469H115.969V51.29H114.469ZM114.469 53V51.5H90.643V53V54.5H114.469V53ZM90.643 53H92.143V13.1H90.643H89.143V53H90.643ZM90.643 13.1V14.6H92.353V13.1V11.6H90.643V13.1ZM92.353 13.1H90.853V51.29H92.353H93.853V13.1H92.353ZM92.353 51.29V52.79H114.469V51.29V49.79H92.353V51.29ZM124.172 19.94V18.44H122.672V19.94H124.172ZM125.882 19.94H127.382V18.44H125.882V19.94ZM125.882 53V54.5H127.382V53H125.882ZM124.172 53H122.672V54.5H124.172V53ZM124.172 19.94V21.44H125.882V19.94V18.44H124.172V19.94ZM125.882 19.94H124.382V53H125.882H127.382V19.94H125.882ZM125.882 53V51.5H124.172V53V54.5H125.882V53ZM124.172 53H125.672V19.94H124.172H122.672V53H124.172ZM140.116 53H138.616V54.5H140.116V53ZM140.116 19.94V18.44H138.616V19.94H140.116ZM141.826 19.94L143.101 19.1487L142.661 18.44H141.826V19.94ZM160.408 49.865L159.134 50.6563L161.908 55.1241V49.865H160.408ZM160.408 19.94V18.44H158.908V19.94H160.408ZM162.118 19.94H163.618V18.44H162.118V19.94ZM162.118 53V54.5H163.618V53H162.118ZM160.408 53L159.133 53.7902L159.573 54.5H160.408V53ZM141.826 23.018L143.101 22.2278L140.326 17.7504V23.018H141.826ZM141.826 53V54.5H143.326V53H141.826ZM140.116 53H141.616V19.94H140.116H138.616V53H140.116ZM140.116 19.94V21.44H141.826V19.94V18.44H140.116V19.94ZM141.826 19.94L140.552 20.7313L159.134 50.6563L160.408 49.865L161.683 49.0737L143.101 19.1487L141.826 19.94ZM160.408 49.865H161.908V19.94H160.408H158.908V49.865H160.408ZM160.408 19.94V21.44H162.118V19.94V18.44H160.408V19.94ZM162.118 19.94H160.618V53H162.118H163.618V19.94H162.118ZM162.118 53V51.5H160.408V53V54.5H162.118V53ZM160.408 53L161.683 52.2098L143.101 22.2278L141.826 23.018L140.551 23.8082L159.133 53.7902L160.408 53ZM141.826 23.018H140.326V53H141.826H143.326V23.018H141.826ZM141.826 53V51.5H140.116V53V54.5H141.826V53ZM176.378 53H174.878V54.5H176.378V53ZM176.378 19.94V18.44H174.878V19.94H176.378ZM178.088 19.94H179.588V18.44H178.088V19.94ZM178.088 53V54.5H179.588V53H178.088ZM197.468 53L196.411 54.0641L196.85 54.5H197.468V53ZM179.912 35.558L178.855 34.4935L177.783 35.5576L178.855 36.6221L179.912 35.558ZM195.644 19.94V18.44H195.026L194.587 18.8755L195.644 19.94ZM198.095 19.94L199.152 21.0045L201.735 18.44H198.095V19.94ZM182.363 35.558L181.306 34.4935L180.234 35.5576L181.306 36.6221L182.363 35.558ZM199.919 53V54.5H203.557L200.976 51.9359L199.919 53ZM176.378 53H177.878V19.94H176.378H174.878V53H176.378ZM176.378 19.94V21.44H178.088V19.94V18.44H176.378V19.94ZM178.088 19.94H176.588V53H178.088H179.588V19.94H178.088ZM178.088 53V51.5H176.378V53V54.5H178.088V53ZM197.468 53L198.525 51.9359L180.969 34.4939L179.912 35.558L178.855 36.6221L196.411 54.0641L197.468 53ZM179.912 35.558L180.969 36.6225L196.701 21.0045L195.644 19.94L194.587 18.8755L178.855 34.4935L179.912 35.558ZM195.644 19.94V21.44H198.095V19.94V18.44H195.644V19.94ZM198.095 19.94L197.038 18.8755L181.306 34.4935L182.363 35.558L183.42 36.6225L199.152 21.0045L198.095 19.94ZM182.363 35.558L181.306 36.6221L198.862 54.0641L199.919 53L200.976 51.9359L183.42 34.4939L182.363 35.558ZM199.919 53V51.5H197.468V53V54.5H199.919V53Z" fill="#006CD0"/>
<path d="M26.023 54H2.767L23.059 15.81H4.249V14.1H25.909L5.617 52.29H26.023V54ZM37.2217 20.94H38.9317V54H37.2217V20.94ZM67.3021 41.688L66.4471 40.206L69.6391 38.382C72.2611 36.938 73.5721 34.639 73.5721 31.485C73.5721 25.595 69.0881 22.65 60.1201 22.65H54.8761V65.4H53.1661V20.94H60.1201C65.1361 20.94 68.9171 21.871 71.4631 23.733C74.0091 25.557 75.2821 28.141 75.2821 31.485C75.2821 35.285 73.6861 38.078 70.4941 39.864L67.3021 41.688Z" fill="#090909"/>
<path d="M26.023 54V55.5H27.523V54H26.023ZM2.767 54L1.44238 53.2962L0.271388 55.5H2.767V54ZM23.059 15.81L24.3836 16.5138L25.5546 14.31H23.059V15.81ZM4.249 15.81H2.749V17.31H4.249V15.81ZM4.249 14.1V12.6H2.749V14.1H4.249ZM25.909 14.1L27.2336 14.8038L28.4046 12.6H25.909V14.1ZM5.617 52.29L4.29238 51.5862L3.12139 53.79H5.617V52.29ZM26.023 52.29H27.523V50.79H26.023V52.29ZM26.023 54V52.5H2.767V54V55.5H26.023V54ZM2.767 54L4.09162 54.7038L24.3836 16.5138L23.059 15.81L21.7344 15.1062L1.44238 53.2962L2.767 54ZM23.059 15.81V14.31H4.249V15.81V17.31H23.059V15.81ZM4.249 15.81H5.749V14.1H4.249H2.749V15.81H4.249ZM4.249 14.1V15.6H25.909V14.1V12.6H4.249V14.1ZM25.909 14.1L24.5844 13.3962L4.29238 51.5862L5.617 52.29L6.94162 52.9938L27.2336 14.8038L25.909 14.1ZM5.617 52.29V53.79H26.023V52.29V50.79H5.617V52.29ZM26.023 52.29H24.523V54H26.023H27.523V52.29H26.023ZM37.2217 20.94V19.44H35.7217V20.94H37.2217ZM38.9317 20.94H40.4317V19.44H38.9317V20.94ZM38.9317 54V55.5H40.4317V54H38.9317ZM37.2217 54H35.7217V55.5H37.2217V54ZM37.2217 20.94V22.44H38.9317V20.94V19.44H37.2217V20.94ZM38.9317 20.94H37.4317V54H38.9317H40.4317V20.94H38.9317ZM38.9317 54V52.5H37.2217V54V55.5H38.9317V54ZM37.2217 54H38.7217V20.94H37.2217H35.7217V54H37.2217ZM67.3021 41.688L66.0029 42.4376L66.7493 43.7315L68.0463 42.9904L67.3021 41.688ZM66.4471 40.206L65.7029 38.9036L64.3952 39.6509L65.1479 40.9556L66.4471 40.206ZM69.6391 38.382L68.9155 37.0681L68.9052 37.0738L68.8949 37.0796L69.6391 38.382ZM54.8761 22.65V21.15H53.3761V22.65H54.8761ZM54.8761 65.4V66.9H56.3761V65.4H54.8761ZM53.1661 65.4H51.6661V66.9H53.1661V65.4ZM53.1661 20.94V19.44H51.6661V20.94H53.1661ZM71.4631 23.733L70.5777 24.9438L70.5836 24.9481L70.5896 24.9524L71.4631 23.733ZM70.4941 39.864L69.7617 38.5549L69.7499 38.5616L70.4941 39.864ZM67.3021 41.688L68.6014 40.9384L67.7464 39.4564L66.4471 40.206L65.1479 40.9556L66.0029 42.4376L67.3021 41.688ZM66.4471 40.206L67.1913 41.5084L70.3833 39.6844L69.6391 38.382L68.8949 37.0796L65.7029 38.9036L66.4471 40.206ZM69.6391 38.382L70.3627 39.6959C71.8833 38.8585 73.0823 37.7376 73.8919 36.3178C74.6992 34.9021 75.0721 33.2725 75.0721 31.485H73.5721H72.0721C72.0721 32.8515 71.7895 33.9484 71.2859 34.8317C70.7845 35.7109 70.017 36.4615 68.9155 37.0681L69.6391 38.382ZM73.5721 31.485H75.0721C75.0721 28.0934 73.7436 25.3855 71.0326 23.605C68.4316 21.8967 64.7206 21.15 60.1201 21.15V22.65V24.15C64.4876 24.15 67.5027 24.8758 69.3857 26.1125C71.1587 27.277 72.0721 28.9866 72.0721 31.485H73.5721ZM60.1201 22.65V21.15H54.8761V22.65V24.15H60.1201V22.65ZM54.8761 22.65H53.3761V65.4H54.8761H56.3761V22.65H54.8761ZM54.8761 65.4V63.9H53.1661V65.4V66.9H54.8761V65.4ZM53.1661 65.4H54.6661V20.94H53.1661H51.6661V65.4H53.1661ZM53.1661 20.94V22.44H60.1201V20.94V19.44H53.1661V20.94ZM60.1201 20.94V22.44C64.9917 22.44 68.4004 23.3514 70.5777 24.9438L71.4631 23.733L72.3486 22.5222C69.4339 20.3906 65.2806 19.44 60.1201 19.44V20.94ZM71.4631 23.733L70.5896 24.9524C72.7121 26.473 73.7821 28.5862 73.7821 31.485H75.2821H76.7821C76.7821 27.6958 75.3061 24.641 72.3367 22.5136L71.4631 23.733ZM75.2821 31.485H73.7821C73.7821 33.1715 73.4295 34.5537 72.7828 35.6855C72.1377 36.8145 71.1532 37.7764 69.7617 38.555L70.4941 39.864L71.2266 41.173C73.027 40.1656 74.4366 38.838 75.3875 37.174C76.3367 35.5128 76.7821 33.5985 76.7821 31.485H75.2821ZM70.4941 39.864L69.7499 38.5616L66.5579 40.3856L67.3021 41.688L68.0463 42.9904L71.2383 41.1664L70.4941 39.864Z" fill="black"/>
</svg>
